fd_6_states
version=1
nRows=35
nColumns=17
inDegrees=yes

# SIMM Motion File Header:
name fd_6_states
datacolumns 17
datarows 35
otherdata 1
range 0.488236 0.501747
endheader
time	/jointset/r_shoulder/r_shoulder_elev/value	/jointset/r_shoulder/r_shoulder_elev/speed	/jointset/r_elbow/r_elbow_flex/value	/jointset/r_elbow/r_elbow_flex/speed	/forceset/TRIlong/activation	/forceset/TRIlong/fiber_length	/forceset/TRIlat/activation	/forceset/TRIlat/fiber_length	/forceset/TRImed/activation	/forceset/TRImed/fiber_length	/forceset/BIClong/activation	/forceset/BIClong/fiber_length	/forceset/BICshort/activation	/forceset/BICshort/fiber_length	/forceset/BRA/activation	/forceset/BRA/fiber_length
      0.488236	      3.413095	    395.956325	    186.968644	     26.670161	      0.024380	      0.181148	      0.367597	      0.112559	      0.360594	      0.107627	      0.955994	      0.054224	      0.567402	      0.054102	      0.550722	      0.038326
      0.488397	      3.477035	    395.845288	    186.972932	     26.427726	      0.024370	      0.181187	      0.366919	      0.112560	      0.359935	      0.107628	      0.956360	      0.054203	      0.564429	      0.054103	      0.547892	      0.038327
      0.488559	      3.540958	    395.732163	    186.977181	     26.185284	      0.024361	      0.181226	      0.366244	      0.112560	      0.359280	      0.107628	      0.956723	      0.054182	      0.561481	      0.054103	      0.545087	      0.038329
      0.488720	      3.604862	    395.616954	    186.981391	     25.942847	      0.024352	      0.181265	      0.365573	      0.112561	      0.358628	      0.107628	      0.957083	      0.054160	      0.558560	      0.054104	      0.542305	      0.038331
      0.488882	      3.668747	    395.499663	    186.985561	     25.700426	      0.024342	      0.181304	      0.364905	      0.112561	      0.357979	      0.107629	      0.957439	      0.054139	      0.555663	      0.054105	      0.539547	      0.038332
      0.489043	      3.732614	    395.380293	    186.989692	     25.458035	      0.024333	      0.181343	      0.364241	      0.112562	      0.357334	      0.107629	      0.957793	      0.054118	      0.552791	      0.054105	      0.536812	      0.038334
      0.489205	      3.796461	    395.258848	    186.993785	     25.215686	      0.024323	      0.181382	      0.363580	      0.112562	      0.356692	      0.107629	      0.958143	      0.054097	      0.549944	      0.054106	      0.534100	      0.038335
      0.489366	      3.860288	    395.135329	    186.997838	     24.973390	      0.024314	      0.181422	      0.362923	      0.112563	      0.356053	      0.107630	      0.958491	      0.054075	      0.547121	      0.054107	      0.531410	      0.038337
      0.489528	      3.924095	    395.009739	    187.001852	     24.731161	      0.024305	      0.181461	      0.362268	      0.112563	      0.355417	      0.107630	      0.958835	      0.054054	      0.544322	      0.054108	      0.528743	      0.038338
      0.489689	      3.987881	    394.882082	    187.005827	     24.489011	      0.024295	      0.181500	      0.361618	      0.112563	      0.354785	      0.107630	      0.959177	      0.054033	      0.541547	      0.054109	      0.526097	      0.038340
      0.489851	      4.051647	    394.752360	    187.009762	     24.246951	      0.024286	      0.181539	      0.360970	      0.112564	      0.354156	      0.107631	      0.959515	      0.054012	      0.538795	      0.054110	      0.523474	      0.038341
      0.489912	      4.075652	    394.702097	    187.011234	     24.156176	      0.024283	      0.181549	      0.360727	      0.112564	      0.353920	      0.107631	      0.959642	      0.054004	      0.537765	      0.054110	      0.522492	      0.038342
      0.489960	      4.094830	    394.661310	    187.012406	     24.083820	      0.024280	      0.181560	      0.360534	      0.112564	      0.353731	      0.107631	      0.959743	      0.053997	      0.536944	      0.054111	      0.521709	      0.038342
      0.489992	      4.107431	    394.634363	    187.013174	     24.036299	      0.024278	      0.181568	      0.360406	      0.112564	      0.353608	      0.107631	      0.959809	      0.053993	      0.536406	      0.054111	      0.521196	      0.038343
      0.490000	      4.110646	    394.627472	    187.013370	     24.024174	      0.024316	      0.181569	      0.360378	      0.112564	      0.353581	      0.107631	      0.959816	      0.053992	      0.536269	      0.054111	      0.521065	      0.038343
      0.490004	      4.112214	    394.624109	    187.013466	     24.018263	      0.024936	      0.181570	      0.360581	      0.112564	      0.353788	      0.107631	      0.959661	      0.053991	      0.536202	      0.054111	      0.521001	      0.038343
      0.490012	      4.115198	    394.617689	    187.013647	     24.007014	      0.026304	      0.181571	      0.361046	      0.112564	      0.354262	      0.107631	      0.959317	      0.053990	      0.536074	      0.054111	      0.520880	      0.038343
      0.490050	      4.130121	    394.584985	    187.014554	     23.950986	      0.033043	      0.181573	      0.363358	      0.112564	      0.356621	      0.107631	      0.957598	      0.053985	      0.535439	      0.054111	      0.520274	      0.038343
      0.490220	      4.197404	    394.421501	    187.018618	     23.704331	      0.061497	      0.181574	      0.373589	      0.112565	      0.367058	      0.107631	      0.949911	      0.053963	      0.532587	      0.054112	      0.517554	      0.038345
      0.490643	      4.363872	    393.885094	    187.028508	     23.148099	      0.121625	      0.181566	      0.397643	      0.112563	      0.391574	      0.107629	      0.931338	      0.053911	      0.525634	      0.054116	      0.510920	      0.038349
      0.491169	      4.570930	    392.913066	    187.040538	     22.597546	      0.182813	      0.181554	      0.425356	      0.112555	      0.419781	      0.107620	      0.909070	      0.053850	      0.517176	      0.054120	      0.502847	      0.038354
      0.491862	      4.842523	    391.049517	    187.056026	     22.179547	      0.248684	      0.181545	      0.458581	      0.112539	      0.453552	      0.107602	      0.881147	      0.053776	      0.506380	      0.054127	      0.492535	      0.038361
      0.492728	      5.180085	    387.758853	    187.075218	     22.216443	      0.315933	      0.181547	      0.495822	      0.112509	      0.491353	      0.107572	      0.848266	      0.053691	      0.493386	      0.054137	      0.480114	      0.038369
      0.493884	      5.624908	    381.800036	    187.101397	     23.289232	      0.388573	      0.181564	      0.539445	      0.112461	      0.535570	      0.107523	      0.807626	      0.053589	      0.476892	      0.054152	      0.464330	      0.038380
      0.495361	      6.181857	    371.789887	    187.137850	     26.376040	      0.462899	      0.181618	      0.587327	      0.112390	      0.584037	      0.107453	      0.760368	      0.053472	      0.457080	      0.054177	      0.445349	      0.038393
      0.497246	      6.868001	    355.713425	    187.193302	     32.921740	      0.537962	      0.181745	      0.638614	      0.112297	      0.635886	      0.107362	      0.706620	      0.053340	      0.433677	      0.054217	      0.422895	      0.038410
      0.499637	      7.689960	    331.274164	    187.285488	     44.795691	      0.612231	      0.181986	      0.691891	      0.112180	      0.689688	      0.107249	      0.647207	      0.053195	      0.406663	      0.054285	      0.396931	      0.038431
      0.499882	      7.771003	    328.562797	    187.296664	     46.208590	      0.618866	      0.182014	      0.696762	      0.112168	      0.694604	      0.107238	      0.641583	      0.053182	      0.404041	      0.054293	      0.394408	      0.038433
      0.499976	      7.801675	    327.522338	    187.301011	     46.754905	      0.621349	      0.182025	      0.698590	      0.112163	      0.696448	      0.107234	      0.639465	      0.053177	      0.403050	      0.054296	      0.393454	      0.038434
      0.500003	      7.810582	    327.218704	    187.302285	     46.914755	      0.621971	      0.182028	      0.699119	      0.112162	      0.696982	      0.107233	      0.638850	      0.053175	      0.402762	      0.054297	      0.393178	      0.038434
      0.500023	      7.816990	    326.999879	    187.303205	     47.030074	      0.621635	      0.182030	      0.699499	      0.112161	      0.697366	      0.107232	      0.638409	      0.053174	      0.402556	      0.054298	      0.392979	      0.038435
      0.500042	      7.823393	    326.780859	    187.304127	     47.145594	      0.621213	      0.182033	      0.699879	      0.112160	      0.697749	      0.107231	      0.637967	      0.053173	      0.402349	      0.054298	      0.392780	      0.038435
      0.500140	      7.855345	    325.682943	    187.308773	     47.726151	      0.619112	      0.182044	      0.701768	      0.112156	      0.699655	      0.107227	      0.635769	      0.053168	      0.401318	      0.054302	      0.391788	      0.038436
      0.500630	      8.013478	    320.135043	    187.332868	     50.697379	      0.608780	      0.182114	      0.710987	      0.112133	      0.708958	      0.107205	      0.624968	      0.053142	      0.396226	      0.054320	      0.386886	      0.038440
      0.501747	      8.363868	    307.323139	    187.393423	     57.806269	      0.586271	      0.182326	      0.730693	      0.112081	      0.728838	      0.107156	      0.601458	      0.053087	      0.384990	      0.054364	      0.376066	      0.038449
